
        <svg xmlns="http://www.w3.org/2000/svg" xmlns:xlink="http://www.w3.org/1999/xlink" version="1.1" width="3162.1621621621625" height="1702.702702702703" viewBox="0 0 3162.1621621621625 1702.702702702703">
			
			<g transform="scale(8.108108108108109) translate(10, 10)">
				<defs id="SvgjsDefs1033"/><g id="SvgjsG1034" featureKey="rootContainer" transform="matrix(1,0,0,1,0,0)" fill="#000"><rect y="0" height="1" width="1" opacity="0"/><rect y="185" width="370" height="5"/></g><g id="SvgjsG1035" featureKey="symbolFeature-0" transform="matrix(0.2012072434607646,0,0,0.2012072434607646,0,18)" fill="#000"><defs xmlns="http://www.w3.org/2000/svg"/><g xmlns="http://www.w3.org/2000/svg"><path class="fil0" d="M351 365l0 406c-68,-14 -137,-15 -205,0l0 -407c68,-14 137,-14 205,1z" style="fill: #fef4e8;"/><path class="fil0" d="M249 0c82,144 165,287 248,431 -166,-118 -331,-122 -497,0 83,-144 166,-287 249,-431z" style="fill: #fef4e8;"/></g></g><g id="SvgjsG1036" featureKey="nameFeature-0" transform="matrix(1.9333711495569497,0,0,1.9333711495569497,119.66249861198253,30.042719239202402)" fill="#000"><path d="M25.818 39.3764 c0.17801 0 0.31524 0.12961 0.31524 0.31602 c0 0.17801 -0.13801 0.30762 -0.31602 0.30762 l-9.0068 0 c-0.17801 0 -0.31602 -0.12961 -0.31602 -0.30762 c0 -0.18641 0.13801 -0.31602 0.31602 -0.31602 l1.44 0 c0.804 0 1.2548 -0.606 0.95996 -1.4 l-2.478 -6.498 l-10.209 0 l-2.5116 6.498 c-0.28 0.7232 0.16078 1.4 0.96 1.4 l1.44 0 c0.17801 0 0.31602 0.12961 0.31602 0.31602 c0 0.17801 -0.13801 0.30762 -0.31602 0.30762 l-5.9212 0 c-0.17801 0 -0.31602 -0.12961 -0.31602 -0.30762 c0 -0.18641 0.13801 -0.31602 0.31602 -0.31602 l0.96 0 c1.04 0 1.5116 -0.52 1.84 -1.4 l9.5228 -24.482 l0.75602 0 l9.4084 24.522 c0.2884 0.72 0.84 1.36 1.96 1.36 l0.88 0 z M6.7736 30.8632 l9.7316 0 l-4.8296 -12.664 z M48.062 17.877 c0 -1.6236 -2.5012 -3.776 -6.8872 -3.776 c-5.156 0 -9.0428 3.6152 -9.0428 12.738 c0 7.6428 3.0704 12.488 9.0924 12.488 c4.3392 0 7.3116 -2.866 8.1652 -4.7984 c0.13922 -0.26879 0.26043 -0.3252 0.39004 -0.3252 c0.20961 0 0.33922 0.1616 0.30762 0.37121 c-0.25359 0.884 -1.1212 2.1184 -2.4508 3.172 c-1.56 1.3336 -3.8856 2.51 -6.9008 2.51 c-7.8248 0 -12.222 -5.7064 -12.222 -13.418 c0 -8.7504 5.3048 -13.458 12.136 -13.458 c5.9848 0 9.5088 3.2236 9.5088 6.4596 c0 1.894 -1.0208 2.6968 -1.9932 2.6968 c-0.916 0 -1.792 -0.666 -1.792 -1.7668 c0 -1.4344 1.6884 -1.7488 1.6884 -2.8936 z M73.524 13.64 l-0.00039062 6.9692 c0 0.18641 -0.12961 0.31602 -0.31602 0.31602 c-0.17801 0 -0.30762 -0.12961 -0.30762 -0.31602 l0 -1.6192 c0 -2.76 -1.64 -4.7268 -4.92 -4.7268 l-2.014 0 c-0.5812 0 -0.96244 0.438 -0.96244 0.9236 l0 23.263 c0 0.4872 0.37961 0.9272 0.96244 0.9272 l1.036 0 c0.18641 0 0.31602 0.12961 0.31602 0.30762 c0 0.18641 -0.12961 0.31602 -0.31602 0.31602 l-7.404 0 c-0.18602 0 -0.31562 -0.12961 -0.31562 -0.31602 c0 -0.17801 0.12961 -0.30762 0.31562 -0.30762 l1.036 0 c0.5812 0 0.96244 -0.4356 0.96244 -0.9236 l0 -23.263 c0 -0.4888 -0.37961 -0.9268 -0.96244 -0.9268 l-1.378 0 c-3.5972 0 -5.5544 1.6496 -5.5544 5.3612 l0 0.9848 c0 0.18641 -0.12961 0.31602 -0.31562 0.31602 c-0.17801 0 -0.30762 -0.12961 -0.30762 -0.31602 l0 -6.9696 l20.446 0 z M95.536 39.3764 c0.18602 0 0.31531 0.12976 0.31531 0.30777 c0 0.18641 -0.12961 0.31602 -0.31562 0.31602 l-5.12 0 l0 -5.3028 c-0.9752 3.2024 -3.3128 5.5756 -6.8704 5.5756 c-3.44 0 -5.4992 -2.0164 -5.4992 -5.5724 l0 -11.153 c0 -0.5144 -0.38602 -0.96404 -0.96404 -0.96404 l-1.036 0 c-0.18641 0 -0.31602 -0.12961 -0.31602 -0.30762 c0 -0.18641 0.12961 -0.31602 0.31602 -0.31602 l5.12 0 l0 12.011 c0 4.0236 1.8084 5.192 3.4884 5.192 c3.5684 0 5.7616 -3.8096 5.7616 -8.2676 l0 -7.3476 c0 -0.5144 -0.38602 -0.96404 -0.96404 -0.96404 l-1.036 0 c-0.18602 0 -0.31562 -0.12961 -0.31562 -0.30762 c0 -0.18641 0.12961 -0.31602 0.31562 -0.31602 l5.12 0 l0 16.452 c0 0.5144 0.38602 0.96404 0.96404 0.96404 l1.036 0 z M118.796 39.3764 c0.18641 0 0.31594 0.12953 0.31594 0.30754 c0 0.18641 -0.12961 0.31602 -0.31602 0.31602 l-5.12 0 l0 -5.3836 c-1.1092 3.3544 -3.5132 5.7048 -6.7616 5.7048 c-4.0884 0 -7.8176 -2.9176 -7.8176 -9.3548 c0 -6.084 3.7252 -9.3112 7.818 -9.3112 c3.306 0 5.6852 2.44 6.7612 5.7284 l0 -5.4236 l3.12 0 l0 16.452 c0 0.5144 0.38602 0.96404 0.96404 0.96404 l1.036 0 z M107.802 39.40112 c3.0704 0 5.8992 -3.8168 5.8992 -8.3932 c0 -4.6112 -2.862 -8.4332 -5.8992 -8.4332 c-3.1132 0 -5.3548 2.5188 -5.3548 8.4016 c0 5.906 2.2416 8.4248 5.3548 8.4248 z M129.1668 39.3764 c0.18641 0 0.31558 0.12969 0.31558 0.3077 c0 0.18641 -0.12961 0.31602 -0.31602 0.31602 l-7.12 0 c-0.18641 0 -0.31602 -0.12961 -0.31602 -0.31602 c0 -0.17801 0.12961 -0.30762 0.31602 -0.30762 l1.036 0 c0.578 0 0.96404 -0.4496 0.96404 -0.96404 l0 -25.985 c0 -0.5144 -0.38602 -0.96404 -0.96404 -0.96404 l-1.036 0 c-0.18641 0 -0.31602 -0.12961 -0.31602 -0.30762 c0 -0.18641 0.12961 -0.31602 0.31602 -0.31602 l5.12 0 l0 27.572 c0 0.5144 0.38641 0.96404 0.9644 0.96404 l1.036 0 z"/></g><g id="SvgjsG1037" featureKey="sloganFeature-0" transform="matrix(1.1085277526475665,0,0,1.1085277526475665,120.53209334241433,118.78759432850435)" fill="#000"><path d="M-0.48 20 l1.48 -8.4 c0.98 -5.58 1.38 -7.78 4.38 -7.78 s2.6 2.2 1.62 7.78 l-1.48 8.4 l-2 0 l0.82 -4.6 l-2 0 l-0.82 4.6 l-2 0 z M2.62 13.8 l2 0 l0.38 -2.2 c0.92 -5.2 1.08 -6.18 0.08 -6.18 s-1.16 0.98 -2.08 6.18 z M7.52 20 l2.82 -16 l3 0 c3 0 2.62 2.2 1.66 7.58 c-1.08 6.2 -1.48 8.42 -4.48 8.42 l-3 0 z M9.879999999999999 18 l1 0 c1.12 0 1.26 -0.84 2.24 -6.42 c0.88 -5 1.06 -5.98 -0.06 -5.98 l-1 0 z M15.32 20 l2.82 -16 l3 0 c3 0 2.62 2.2 1.66 7.58 c-1.08 6.2 -1.48 8.42 -4.48 8.42 l-3 0 z M17.68 18 l1 0 c1.12 0 1.26 -0.84 2.24 -6.42 c0.88 -5 1.06 -5.98 -0.06 -5.98 l-1 0 z M23.12 20 l2.82 -16 l2 0 l-2.82 16 l-2 0 z M28.400000000000002 11.58 c0.98 -5.58 1.38 -7.78 4.18 -7.78 c2.06 0 2.4 1.26 2 4.28 l-1.86 0 c0.3 -2.18 0.18 -2.68 -0.42 -2.68 c-0.92 0 -1.1 0.98 -2.02 6.18 c-1.02 5.78 -1.16 6.62 -0.24 6.62 c0.66 0 0.94 -0.5 1.44 -3.08 l1.88 0 c-0.78 3.7 -1.52 5.08 -3.68 5.08 c-2.8 0 -2.4 -2.22 -1.28 -8.62 z M35.1 20 l2.5 -14.2 l-2 0 l0.32 -1.8 l6 0 l-0.32 1.8 l-2 0 l-2.5 14.2 l-2 0 z M40.300000000000004 20 l2.82 -16 l2 0 l-2.82 16 l-2 0 z M45.58 11.58 c0.98 -5.58 1.5 -7.78 4.5 -7.78 s2.72 2.2 1.74 7.78 c-1.12 6.4 -1.64 8.62 -4.64 8.62 s-2.72 -2.22 -1.6 -8.62 z M47.54 18.2 c1.12 0 1.26 -0.84 2.28 -6.62 c0.92 -5.2 1.1 -6.18 -0.02 -6.18 s-1.3 0.98 -2.22 6.18 c-1.02 5.78 -1.16 6.62 -0.04 6.62 z M52.14000000000001 20 l2.82 -16 l1.8 0 l0.9 9.8 l0 -0.2 l1.7 -9.6 l2 0 l-2.82 16 l-1.8 0 l-1.06 -8.8 l-0.02 0.2 l-1.52 8.6 l-2 0 z M64.94 20 l2.82 -16 l3.24 0 c2.06 0 2.54 1.26 2.12 3.68 c-0.4 2.18 -0.88 3.42 -1.6 4.02 l-0.02 0.12 c0.48 0.18 0.48 1.12 0.28 3.46 l-0.44 4.72 l-2 0 l0.58 -4.72 c0.28 -2.38 0 -2.88 -0.6 -2.88 l-1.04 0 l-1.34 7.6 l-2 0 z M68.56 10.8 l1.24 0 c0.7 0 1.02 -0.7 1.46 -3.12 c0.26 -1.58 0.06 -2.08 -0.54 -2.08 l-1.24 0 z M72.94 20 l2.82 -16 l4.6 0 l-0.28 1.6 l-2.6 0 l-0.92 5.2 l2.2 0 l-0.28 1.6 l-2.2 0 l-0.98 5.6 l2.6 0 l-0.36 2 l-4.6 0 z M80.22 11.58 c0.98 -5.58 1.38 -7.78 4.18 -7.78 c2.06 0 2.4 1.26 2 4.28 l-1.86 0 c0.3 -2.18 0.18 -2.68 -0.42 -2.68 c-0.92 0 -1.1 0.98 -2.02 6.18 c-1.02 5.78 -1.16 6.62 -0.24 6.62 c0.66 0 0.94 -0.5 1.44 -3.08 l1.88 0 c-0.78 3.7 -1.52 5.08 -3.68 5.08 c-2.8 0 -2.4 -2.22 -1.28 -8.62 z M87 11.58 c0.98 -5.58 1.5 -7.78 4.5 -7.78 s2.72 2.2 1.74 7.78 c-1.12 6.4 -1.64 8.62 -4.64 8.62 s-2.72 -2.22 -1.6 -8.62 z M88.96000000000001 18.2 c1.12 0 1.26 -0.84 2.28 -6.62 c0.92 -5.2 1.1 -6.18 -0.02 -6.18 s-1.3 0.98 -2.22 6.18 c-1.02 5.78 -1.16 6.62 -0.04 6.62 z M95.16000000000001 20 l0.62 -16 l2.1 0 l-0.88 11.8 l0.2 0 l3.28 -11.8 l2.1 0 l-5.02 16 l-2.4 0 z M101.16 20 l2.82 -16 l4.6 0 l-0.28 1.6 l-2.6 0 l-0.92 5.2 l2.2 0 l-0.28 1.6 l-2.2 0 l-0.98 5.6 l2.6 0 l-0.36 2 l-4.6 0 z M107.16 20 l2.82 -16 l3.24 0 c2.06 0 2.54 1.26 2.12 3.68 c-0.4 2.18 -0.88 3.42 -1.6 4.02 l-0.02 0.12 c0.48 0.18 0.48 1.12 0.28 3.46 l-0.44 4.72 l-2 0 l0.58 -4.72 c0.28 -2.38 0 -2.88 -0.6 -2.88 l-1.04 0 l-1.34 7.6 l-2 0 z M110.78 10.8 l1.24 0 c0.7 0 1.02 -0.7 1.46 -3.12 c0.26 -1.58 0.06 -2.08 -0.54 -2.08 l-1.24 0 z M116.66 20 l1.22 -6.96 l-0.7 -9.04 l2 0 l0.12 6.16 l0.2 0 l2.28 -6.16 l2 0 l-3.9 9.04 l-1.22 6.96 l-2 0 z M127.02000000000001 15.120000000000001 l2.02 0 c-0.42 2.58 -0.3 3.08 0.42 3.08 c0.98 0 1.12 -0.82 1.5 -3 c0.56 -3.2 -3.54 -2.34 -2.8 -6.6 c0.44 -2.5 0.86 -4.8 3.86 -4.8 c2.22 0 2.6 1.26 2.2 4.28 l-2 0 c0.3 -2.18 0.16 -2.68 -0.48 -2.68 c-0.98 0 -1.18 1.08 -1.56 3.2 c-0.54 3.1 3.64 2 2.82 6.6 c-0.48 2.8 -0.88 5 -3.9 5 c-2.32 0 -2.62 -1.38 -2.08 -5.08 z M133.76000000000002 20 l2.82 -16 l4.6 0 l-0.28 1.6 l-2.6 0 l-0.92 5.2 l2.2 0 l-0.28 1.6 l-2.2 0 l-0.98 5.6 l2.6 0 l-0.36 2 l-4.6 0 z M139.76000000000002 20 l2.82 -16 l3.24 0 c2.06 0 2.54 1.26 2.12 3.68 c-0.4 2.18 -0.88 3.42 -1.6 4.02 l-0.02 0.12 c0.48 0.18 0.48 1.12 0.28 3.46 l-0.44 4.72 l-2 0 l0.58 -4.72 c0.28 -2.38 0 -2.88 -0.6 -2.88 l-1.04 0 l-1.34 7.6 l-2 0 z M143.38 10.8 l1.24 0 c0.7 0 1.02 -0.7 1.46 -3.12 c0.26 -1.58 0.06 -2.08 -0.54 -2.08 l-1.24 0 z M149.36 20 l0.62 -16 l2.1 0 l-0.88 11.8 l0.2 0 l3.28 -11.8 l2.1 0 l-5.02 16 l-2.4 0 z M155.36 20 l2.82 -16 l2 0 l-2.82 16 l-2 0 z M160.64000000000001 11.58 c0.98 -5.58 1.38 -7.78 4.18 -7.78 c2.06 0 2.4 1.26 2 4.28 l-1.86 0 c0.3 -2.18 0.18 -2.68 -0.42 -2.68 c-0.92 0 -1.1 0.98 -2.02 6.18 c-1.02 5.78 -1.16 6.62 -0.24 6.62 c0.66 0 0.94 -0.5 1.44 -3.08 l1.88 0 c-0.78 3.7 -1.52 5.08 -3.68 5.08 c-2.8 0 -2.4 -2.22 -1.28 -8.62 z M166.14000000000001 20 l2.82 -16 l4.6 0 l-0.28 1.6 l-2.6 0 l-0.92 5.2 l2.2 0 l-0.28 1.6 l-2.2 0 l-0.98 5.6 l2.6 0 l-0.36 2 l-4.6 0 z M172.6 15.120000000000001 l2.02 0 c-0.42 2.58 -0.3 3.08 0.42 3.08 c0.98 0 1.12 -0.82 1.5 -3 c0.56 -3.2 -3.54 -2.34 -2.8 -6.6 c0.44 -2.5 0.86 -4.8 3.86 -4.8 c2.22 0 2.6 1.26 2.2 4.28 l-2 0 c0.3 -2.18 0.16 -2.68 -0.48 -2.68 c-0.98 0 -1.18 1.08 -1.56 3.2 c-0.54 3.1 3.64 2 2.82 6.6 c-0.48 2.8 -0.88 5 -3.9 5 c-2.32 0 -2.62 -1.38 -2.08 -5.08 z"/></g>
			</g>
		</svg>
	